<svg width="106" height="79" viewBox="0 0 106 79" fill="none" xmlns="http://www.w3.org/2000/svg">
<path d="M103.707 40.2071L104.414 39.5L103.707 38.7929L80.1363 15.2221L79.4292 14.515L78.7221 15.2221L72.8304 21.1137L72.1233 21.8208L72.8304 22.5279L89.8025 39.5L72.8304 56.4721L72.1233 57.1792L72.8304 57.8863L78.7221 63.7779L79.4292 64.485L80.1363 63.7779L103.707 40.2071ZM33.1696 56.4721L16.1975 39.4999L33.1655 22.5279L33.8722 21.821L33.1657 21.114L27.2782 15.2223L26.5711 14.5147L25.8637 15.2221L2.29289 38.7929L1.58579 39.5L2.29289 40.2071L25.8637 63.7779L26.5708 64.485L27.2779 63.7779L33.1696 57.8863L33.8767 57.1792L33.1696 56.4721ZM43.7833 78H44.4835L44.723 77.342L72.023 2.34204L72.5115 1H71.0833H62.2167H61.5165L61.277 1.65796L33.977 76.658L33.4885 78H34.9167H43.7833Z" fill="#022D33" stroke="#022D33" style="fill:#022D33;fill:color(display-p3 0.0078 0.1765 0.2000);fill-opacity:1;stroke:#022D33;stroke:color(display-p3 0.0078 0.1765 0.2000);stroke-opacity:1;" stroke-width="2"/>
</svg>
