<svg width="16" height="16" viewBox="0 0 16 16" fill="none" xmlns="http://www.w3.org/2000/svg">
<g clip-path="url(#clip0_1_809)">
<g clip-path="url(#clip1_1_809)">
<path d="M14.583 3.83397H0.417C0.187 3.83397 0 3.64797 0 3.41797V2.58397C0 2.35397 0.187 2.16797 0.417 2.16797H14.583C14.813 2.16797 15 2.35397 15 2.58397V3.41797C15 3.64797 14.813 3.83397 14.583 3.83397Z" fill="#7F7F7F" style="fill:#7F7F7F;fill:color(display-p3 0.4966 0.4966 0.4966);fill-opacity:1;"/>
<path d="M15 8.08203V7.24903C15 7.01903 14.813 6.83203 14.583 6.83203H0.417C0.187 6.83203 0 7.01903 0 7.24903V8.08203C0 8.31203 0.187 8.49903 0.417 8.49903H14.583C14.813 8.49903 15 8.31203 15 8.08203Z" fill="#7F7F7F" style="fill:#7F7F7F;fill:color(display-p3 0.4966 0.4966 0.4966);fill-opacity:1;"/>
<path d="M15 12.75V11.917C15 11.687 14.813 11.5 14.583 11.5H0.417C0.187 11.5 0 11.687 0 11.917V12.75C0 12.98 0.187 13.167 0.417 13.167H14.583C14.813 13.167 15 12.98 15 12.75Z" fill="#7F7F7F" style="fill:#7F7F7F;fill:color(display-p3 0.4966 0.4966 0.4966);fill-opacity:1;"/>
</g>
</g>
<defs>
<clipPath id="clip0_1_809">
<rect width="15" height="12" fill="white" style="fill:white;fill-opacity:1;" transform="translate(0 2)"/>
</clipPath>
<clipPath id="clip1_1_809">
<rect width="15" height="12" fill="white" style="fill:white;fill-opacity:1;" transform="translate(0 2)"/>
</clipPath>
</defs>
</svg>
