<svg width="28" height="28" viewBox="0 0 28 28" fill="none" xmlns="http://www.w3.org/2000/svg">
<path fill-rule="evenodd" clip-rule="evenodd" d="M14 0C21.7319 -3.37975e-07 28 6.26801 28 14C28 21.7319 21.7319 28 14 28C6.26801 28 3.37975e-07 21.7319 0 14C-3.37976e-07 6.26801 6.26801 3.37975e-07 14 0ZM14 0C19.3351 -2.33204e-07 23.66 4.32492 23.66 9.66C23.66 14.9951 19.3351 19.32 14 19.32C8.66494 19.32 4.34 14.9951 4.34 9.66C4.34 4.32492 8.66494 2.33204e-07 14 0ZM18.48 9.66C18.48 7.18577 16.4742 5.18 14 5.18C11.5258 5.18 9.52 7.18577 9.52 9.66C9.52 12.1342 11.5258 14.14 14 14.14C16.4742 14.14 18.48 12.1342 18.48 9.66Z" fill="#022D33" style="fill:#022D33;fill:color(display-p3 0.0078 0.1765 0.2000);fill-opacity:1;"/>
</svg>
